<svg class="icon" width="200px" height="200.00px" viewBox="0 0 1024 1024" version="1.1" xmlns="http://www.w3.org/2000/svg"><path fill="#8a8a8a" d="M731.35 253.46l117.15-0.03c8.49 0 12.87-11.15 7.06-17.96L738.42 98.2c-2-2.34-4.52-3.39-6.99-3.39-4.97 0-9.77 4.23-9.77 10.68l-0.01 137.3c0.01 5.9 4.35 10.67 9.7 10.67z m8.68-112.86l76.21 89.31-76.22 0.02 0.01-89.33zM249.21 356.94c0 16.45 13.34 29.79 29.79 29.79h429.26c16.45 0 29.79-13.34 29.79-29.79s-13.34-29.79-29.79-29.79H278.99c-16.45 0-29.78 13.33-29.78 29.79zM368.21 592.18c0-16.51-11.94-22.68-26.61-22.68h-27.13v45.18h26.41c16.01 0 27.33-6.16 27.33-22.5zM867.68 464.08V269.95h-42v194.14H198.32v-332.1c0-4.96 3.59-8.99 8-8.99h495.34V81H206.32c-27.57 0-50 22.88-50 50.99v332.09h-61v320.17h61V892c0 28.12 22.43 50.99 50 50.99h611.35c27.57 0 50-22.87 50-50.99V784.26h61V464.08h-60.99z m-192.81 75.55c41.18 0 65.42 23.24 69.3 50.53h-34.6c-3.29-10.72-11.74-23.39-35.16-23.39-32.86 0-42.23 27.48-42.23 55.7 0 27.54 10.72 54.66 42.45 54.66 29.59 0 35.04-20.54 35.04-34.86v-1.45h-35.09v-28.36h69.03V702h-25.36c-1.34-4.92-2.21-10.42-2.65-15.78-8.87 11.96-24.5 18.46-46.74 18.46-46.45 0-72.41-35.11-72.41-80.69-0.02-48.12 27.97-84.36 78.42-84.36z m-245.78 2.32h42.89c19.99 35.93 56.94 100.74 64.29 118.18h0.44c-1.8-16.7-1.77-44.49-1.77-70.75v-47.43h31.36v160.04h-40.68c-17.19-31.27-58.13-105.72-66.06-124.21h-0.44c1.16 14 1.54 46.87 1.54 75.54v48.67h-31.57V541.95z m-149.26 0h66.21c34 0 57.09 19.14 57.09 49.56 0 34.77-26.33 50.72-57.9 50.72h-30.77V702h-34.63V541.95z m545.85 350.06c0 4.96-3.59 8.99-8 8.99H206.32c-4.41 0-8-4.03-8-8.99V784.26h627.36v107.75z" /></svg>