<svg xmlns="http://www.w3.org/2000/svg" xmlns:xlink="http://www.w3.org/1999/xlink" width="0" height="0" style="display:none;"><symbol viewBox="0 0 24 24" id="icon-arrow-left-s-line"><path fill="none" d="M0 0h24v24H0z"></path><path d="M10.828 12l4.95 4.95-1.414 1.414L8 12l6.364-6.364 1.414 1.414z"></path></symbol><symbol viewBox="0 0 24 24" id="icon-arrow-up-line"><path fill="none" d="M0 0h24v24H0z"></path><path d="M13 7.828V20h-2V7.828l-5.364 5.364-1.414-1.414L12 4l7.778 7.778-1.414 1.414L13 7.828z"></path></symbol><symbol viewBox="0 0 24 24" id="icon-delete-bin-line"><path fill="none" d="M0 0h24v24H0z"></path><path d="M17 6h5v2h-2v13a1 1 0 0 1-1 1H5a1 1 0 0 1-1-1V8H2V6h5V3a1 1 0 0 1 1-1h8a1 1 0 0 1 1 1v3zm1 2H6v12h12V8zm-9 3h2v6H9v-6zm4 0h2v6h-2v-6zM9 4v2h6V4H9z"></path></symbol><symbol viewBox="0 0 24 24" id="icon-download-2-line"><path fill="none" d="M0 0h24v24H0z"></path><path d="M13 10h5l-6 6-6-6h5V3h2v7zm-9 9h16v-7h2v8a1 1 0 0 1-1 1H3a1 1 0 0 1-1-1v-8h2v7z"></path></symbol><symbol viewBox="0 0 24 24" id="icon-file-code-line"><path fill="none" d="M0 0h24v24H0z"></path><path d="M15 4H5v16h14V8h-4V4zM3 2.992C3 2.444 3.447 2 3.999 2H16l5 5v13.993A1 1 0 0 1 20.007 22H3.993A1 1 0 0 1 3 21.008V2.992zM17.657 12l-3.536 3.536-1.414-1.415L14.828 12l-2.12-2.121 1.413-1.415L17.657 12zM6.343 12L9.88 8.464l1.414 1.415L9.172 12l2.12 2.121-1.413 1.415L6.343 12z"></path></symbol><symbol viewBox="0 0 1024 1024" id="icon-file-pdf-line"><path fill="#8a8a8a" d="M731.52 251.15l117.15-0.03c8.49 0 12.87-11.15 7.06-17.96L738.59 95.89c-2-2.34-4.52-3.39-6.99-3.39-4.97 0-9.77 4.23-9.77 10.68l-0.01 137.3c0.01 5.89 4.35 10.67 9.7 10.67z m17.4-98.91l66.31 77.71-66.32 0.02 0.01-77.73zM297.37 327.15c-16.45 0-29.79 13.34-29.79 29.79s13.34 29.79 29.79 29.79h429.26c16.45 0 29.79-13.34 29.79-29.79s-13.34-29.79-29.79-29.79H297.37zM391.15 592.18c0-16.51-11.94-22.68-26.61-22.68h-27.13v45.18h26.41c16.01 0 27.33-6.16 27.33-22.5zM556.83 620.05c0-26.14-12.7-50.14-44.04-50.14h-26.15v104.13h25.95c30.68 0 44.24-22.82 44.24-53.99zM867.68 464.08V269.95h-42v194.14H198.32v-332.1c0-4.96 3.59-8.99 8-8.99h495.34V81H206.32c-27.57 0-50 22.88-50 50.99v332.09h-61v320.17h61V892c0 28.12 22.43 50.99 50 50.99h611.35c27.57 0 50-22.87 50-50.99V784.26h61V464.08h-60.99z m-244.8 77.87h111.71v28.36h-77.92v39.21h72.99v28.36h-72.99v64.1h-33.79V541.95z m-170.85 0h63.46c46.61 0 77.08 30.7 77.08 78.01 0 46.68-29.56 82.03-78.54 82.03h-62V541.95z m-149.25 0h66.21c34 0 57.09 19.14 57.09 49.56 0 34.77-26.33 50.72-57.9 50.72h-30.77V702h-34.63V541.95z m522.9 350.06c0 4.96-3.59 8.99-8 8.99H206.32c-4.41 0-8-4.03-8-8.99V784.26h627.36v107.75z"></path></symbol><symbol viewBox="0 0 1024 1024" id="icon-file-png-line"><path fill="#8a8a8a" d="M731.35 253.46l117.15-0.03c8.49 0 12.87-11.15 7.06-17.96L738.42 98.2c-2-2.34-4.52-3.39-6.99-3.39-4.97 0-9.77 4.23-9.77 10.68l-0.01 137.3c0.01 5.9 4.35 10.67 9.7 10.67z m8.68-112.86l76.21 89.31-76.22 0.02 0.01-89.33zM249.21 356.94c0 16.45 13.34 29.79 29.79 29.79h429.26c16.45 0 29.79-13.34 29.79-29.79s-13.34-29.79-29.79-29.79H278.99c-16.45 0-29.78 13.33-29.78 29.79zM368.21 592.18c0-16.51-11.94-22.68-26.61-22.68h-27.13v45.18h26.41c16.01 0 27.33-6.16 27.33-22.5zM867.68 464.08V269.95h-42v194.14H198.32v-332.1c0-4.96 3.59-8.99 8-8.99h495.34V81H206.32c-27.57 0-50 22.88-50 50.99v332.09h-61v320.17h61V892c0 28.12 22.43 50.99 50 50.99h611.35c27.57 0 50-22.87 50-50.99V784.26h61V464.08h-60.99z m-192.81 75.55c41.18 0 65.42 23.24 69.3 50.53h-34.6c-3.29-10.72-11.74-23.39-35.16-23.39-32.86 0-42.23 27.48-42.23 55.7 0 27.54 10.72 54.66 42.45 54.66 29.59 0 35.04-20.54 35.04-34.86v-1.45h-35.09v-28.36h69.03V702h-25.36c-1.34-4.92-2.21-10.42-2.65-15.78-8.87 11.96-24.5 18.46-46.74 18.46-46.45 0-72.41-35.11-72.41-80.69-0.02-48.12 27.97-84.36 78.42-84.36z m-245.78 2.32h42.89c19.99 35.93 56.94 100.74 64.29 118.18h0.44c-1.8-16.7-1.77-44.49-1.77-70.75v-47.43h31.36v160.04h-40.68c-17.19-31.27-58.13-105.72-66.06-124.21h-0.44c1.16 14 1.54 46.87 1.54 75.54v48.67h-31.57V541.95z m-149.26 0h66.21c34 0 57.09 19.14 57.09 49.56 0 34.77-26.33 50.72-57.9 50.72h-30.77V702h-34.63V541.95z m545.85 350.06c0 4.96-3.59 8.99-8 8.99H206.32c-4.41 0-8-4.03-8-8.99V784.26h627.36v107.75z"></path></symbol><symbol viewBox="0 0 24 24" id="icon-github-fill"><path fill="none" d="M0 0h24v24H0z"></path><path d="M12 2C6.475 2 2 6.475 2 12a9.994 9.994 0 0 0 6.838 9.488c.5.087.687-.213.687-.476 0-.237-.013-1.024-.013-1.862-2.512.463-3.162-.612-3.362-1.175-.113-.288-.6-1.175-1.025-1.413-.35-.187-.85-.65-.013-.662.788-.013 1.35.725 1.538 1.025.9 1.512 2.338 1.087 2.912.825.088-.65.35-1.087.638-1.337-2.225-.25-4.55-1.113-4.55-4.938 0-1.088.387-1.987 1.025-2.688-.1-.25-.45-1.275.1-2.65 0 0 .837-.262 2.75 1.026a9.28 9.28 0 0 1 2.5-.338c.85 0 1.7.112 2.5.337 1.912-1.3 2.75-1.024 2.75-1.024.55 1.375.2 2.4.1 2.65.637.7 1.025 1.587 1.025 2.687 0 3.838-2.337 4.688-4.562 4.938.362.312.675.912.675 1.85 0 1.337-.013 2.412-.013 2.75 0 .262.188.574.688.474A10.016 10.016 0 0 0 22 12c0-5.525-4.475-10-10-10z"></path></symbol></svg>